PathFileType	4	(X/Y/Z)	E:\Qualisys_Data\Carbon_Farble_Plate\Data\Amateur_Runner\S2\T2\S2T2V22_c3d.trc
DataRate	CameraRate	NumFrames	NumMarkers	Units	OrigDataRate	OrigDataStartFrame	OrigNumFrames
200.000000	200.000000	4	39	mm	200.000000	186	298
Frame#	Time	LSHO			RSHO			LICST			RICST			LASIS			LHEEL			RASIS			LTROC			RTROC			SACR			LTH1			LSK4			LTH2			LTH3			RHM5			LSK2			LTH4			RTH1			LTOE			RTH2			RTH3			RTH4			LLEP			RLEP			LSK1			LSK3			RSK1			LHM5			RSK2			LFT1			RSK3			RSK4			LLME			RLME			RTOE			RHEEL			RFT1			RFT2			LFT2			
		X1	Y1	Z1	X2	Y2	Z2	X3	Y3	Z3	X4	Y4	Z4	X5	Y5	Z5	X6	Y6	Z6	X7	Y7	Z7	X8	Y8	Z8	X9	Y9	Z9	X10	Y10	Z10	X11	Y11	Z11	X12	Y12	Z12	X13	Y13	Z13	X14	Y14	Z14	X15	Y15	Z15	X16	Y16	Z16	X17	Y17	Z17	X18	Y18	Z18	X19	Y19	Z19	X20	Y20	Z20	X21	Y21	Z21	X22	Y22	Z22	X23	Y23	Z23	X24	Y24	Z24	X25	Y25	Z25	X26	Y26	Z26	X27	Y27	Z27	X28	Y28	Z28	X29	Y29	Z29	X30	Y30	Z30	X31	Y31	Z31	X32	Y32	Z32	X33	Y33	Z33	X34	Y34	Z34	X35	Y35	Z35	X36	Y36	Z36	X37	Y37	Z37	X38	Y38	Z38	X39	Y39	Z39	

187	0.93	863.9564819335938	1461.261840820312	-438.4359436035156	940.1239013671876	1428.46923828125	-143.3151397705078	839.8827514648438	995.679443359375	-445.8082275390625	881.1751098632812	958.1546630859376	-147.8048553466797	901.0626831054688	946.4059448242188	-433.36669921875	686.8333129882812	424.3136901855469	-352.7798461914062	930.9047241210938	909.4398803710938	-178.787353515625	788.5814819335938	872.3340454101562	-461.3377075195312	773.1600952148438	870.0742797851562	-146.0717163085938	769.6891479492188	1019.315124511719	-278.9096069335938	1035.292236328125	726.1069946289062	-459.0632934570312	874.7062377929688	496.7080993652344	-442.5301818847656	969.4017944335938	675.3672485351562	-470.3174743652344	1095.029907226562	643.6815185546875	-439.917236328125	505.5746459960938	67.4946517944336	-191.6651000976562	964.3099365234376	539.9559936523438	-454.417724609375	1025.57861328125	594.0630493164062	-446.0361938476562	822.0261840820312	594.4266357421875	-162.4387817382812	816.3798828125	214.1013946533203	-393.5409545898438	749.4542846679688	621.8690185546875	-154.9313354492188	784.6779174804688	502.6193237304688	-188.0768890380859	710.994140625	533.8729858398438	-175.9069671630859	1076.390258789062	570.8759765625	-444.4222717285156	720.6547241210938	485.99560546875	-175.1739349365234	999.2139892578124	469.7142639160156	-440.5692138671875	908.689697265625	426.8925476074219	-432.235107421875	675.0501098632812	367.2283325195312	-179.080322265625	766.6902465820312	254.1921691894531	-445.5322570800781	614.3768920898438	417.8699340820312	-162.6282348632812	668.4208984375	399.7051696777344	-330.0096740722656	609.7886962890625	289.667236328125	-190.18017578125	551.3377685546875	341.7576293945312	-176.553955078125	732.9609985351562	383.8944702148438	-415.3808288574219	455.8745727539062	172.8690032958984	-214.4708099365234	569.1503295898438	48.00527191162109	-255.4683990478516	386.1330871582031	192.9429016113281	-273.2832641601562	386.3401184082031	161.2556762695312	-303.9310607910156	368.3750915527344	168.2870635986328	-251.5227203369141	659.585693359375	405.9588012695312	-383.2717895507812
188	0.935	882.886474609375	1465.747314453125	-437.5923767089844	962.4027099609376	1433.39013671875	-144.7172393798828	863.0226440429688	1000.912841796875	-445.55908203125	906.4117431640624	961.9541015625	-148.7313690185547	924.5875244140624	951.24658203125	-433.3904724121094	719.3721923828125	409.2541198730469	-352.2636413574219	955.5115966796876	913.1131591796876	-179.6556091308594	813.7010498046875	878.3950805664062	-462.0804138183594	796.5985107421875	875.5845336914062	-145.7351989746094	793.7896728515625	1023.583618164062	-277.9710998535156	1060.651489257812	731.6676635742188	-457.9699401855469	903.1370239257812	491.7242431640625	-441.5008850097656	995.39794921875	681.3787841796875	-470.2346496582031	1120.055541992188	649.1814575195312	-438.4280090332031	511.0007019042969	69.91051483154297	-189.6728210449219	990.551025390625	539.820556640625	-453.3006896972656	1050.572998046875	599.8104858398438	-445.0181884765625	839.67333984375	599.8418579101562	-162.2079315185547	861.2160034179688	207.4470977783203	-394.4167175292969	767.652099609375	628.876220703125	-153.8165435791016	799.7357177734375	509.3230895996094	-187.0444030761719	727.1226806640625	542.169921875	-174.1772308349609	1101.82080078125	576.9713134765625	-443.0293884277344	735.1281127929688	493.9140319824219	-173.8835601806641	1029.457641601562	470.4900207519531	-439.9477233886719	940.6837158203124	423.8573608398438	-431.7281494140625	687.2666625976562	376.4045104980469	-176.7507019042969	809.2315673828125	245.0351409912109	-446.5475463867188	626.0556030273438	426.4642028808594	-160.4998474121094	702.9049682617188	383.0653686523438	-330.2173461914062	622.3656616210938	298.3505554199219	-186.5097198486328	563.3740234375	350.2588195800781	-174.3006134033203	767.2068481445312	372.0420227050781	-414.9835510253906	468.0071716308594	180.1730499267578	-211.7727966308594	573.0776977539062	47.56911087036133	-253.7535552978516	402.792236328125	206.0151519775391	-270.8375244140625	398.653564453125	174.1095428466797	-301.8742065429688	381.2404479980469	181.4743804931641	-249.1804046630859	692.2459106445312	390.4480590820312	-385.3758850097656
189	0.94	901.906005859375	1470.229248046875	-436.6123962402344	984.3853759765624	1438.46484375	-145.7392425537109	886.8980712890625	1005.897033691406	-445.559814453125	931.42138671875	965.9808349609376	-149.0305328369141	946.7401123046876	955.9766845703124	-433.3338623046875	751.85791015625	393.8771362304688	-351.65576171875	979.9348754882812	916.4869384765624	-180.3641662597656	838.492919921875	883.79296875	-463.0701904296875	820.4263916015625	881.2774047851562	-145.5601654052734	817.5238037109375	1027.369018554688	-277.1979064941406	1085.8212890625	737.0462646484375	-456.824462890625	931.5862426757812	486.6593322753906	-441.32470703125	1020.681274414062	686.622314453125	-470.0171203613281	1145.33984375	654.699462890625	-437.2095336914062	516.9017944335938	72.97730255126953	-188.1519622802734	1016.099243164062	539.4173583984375	-452.7933959960938	1075.740844726562	605.40478515625	-444.1311950683594	856.9631958007812	604.8560791015625	-162.3129119873047	905.8726806640624	201.4789123535156	-395.2567443847656	785.8435668945312	635.9805908203125	-152.7507629394531	815.0077514648438	515.830322265625	-185.7232818603516	742.9172973632812	549.9913330078125	-172.6766357421875	1126.718383789062	582.2177124023438	-441.8737182617188	749.412841796875	501.6334533691406	-172.0470123291016	1057.870849609375	473.2428588867188	-440.0448913574219	973.0062255859376	420.7690734863281	-431.3869323730469	700.3457641601562	385.3318786621094	-173.9844512939453	851.8589477539062	236.3819427490234	-447.1669006347656	639.3896484375	435.3782653808594	-158.0496520996094	736.6994018554688	366.7922058105469	-330.4457397460938	635.8195190429688	306.6513671875	-183.6304016113281	576.5538940429688	358.3896484375	-172.3797760009766	802.0839233398438	360.9122314453125	-414.9197387695312	481.340087890625	187.7693176269531	-208.7507934570312	576.8609619140625	46.66977691650391	-251.1526641845703	418.8248901367188	218.1055297851562	-268.0505981445312	412.5419311523438	187.1527252197266	-299.4974670410156	395.6918640136719	195.6736755371094	-247.0149688720703	727.5302734375	372.9829406738281	-383.2525024414062
190	0.945	921.0189819335938	1474.264526367188	-436.00146484375	1006.600830078125	1443.135009765625	-146.9145355224609	910.4437866210938	1010.685119628906	-445.8730773925781	955.9278564453124	969.8554077148438	-149.6212615966797	970.0211791992188	960.2335815429688	-433.1132202148438	785.1495971679688	378.9614868164062	-351.2658386230469	1004.120788574219	920.3076782226562	-180.8136291503906	862.9769897460938	889.1819458007812	-463.61962890625	843.773193359375	887.02880859375	-144.7955169677734	841.5376586914062	1031.490234375	-276.5875854492188	1110.732543945312	742.0335083007812	-455.989501953125	960.0552978515624	480.8090515136719	-440.4486694335938	1046.139038085938	691.52001953125	-469.68896484375	1169.918090820312	659.1361694335938	-435.9387817382812	523.6173706054688	76.44863891601562	-186.77392578125	1041.788452148438	538.0765380859375	-451.7562866210938	1100.48876953125	609.5061645507812	-442.8372802734375	874.5642700195312	610.52587890625	-161.7409210205078	950.3657836914062	196.0074157714844	-395.91357421875	804.2788696289062	642.794921875	-151.5348358154297	830.232666015625	522.4692993164062	-184.1704254150391	759.2293090820312	558.1829833984375	-171.1038360595703	1151.331298828125	587.2605590820312	-440.6632080078125	764.48779296875	509.2646179199219	-170.4545593261719	1086.719970703125	474.6002807617188	-440.1447143554688	1005.377807617188	416.5888366699219	-430.9915771484375	714.14697265625	394.3725891113281	-171.8499908447266	894.4214477539062	228.1392974853516	-447.5797119140625	652.4465942382812	443.6530151367188	-156.1501922607422	771.2945556640625	350.3972778320312	-330.3627624511719	650.0443115234375	315.06640625	-180.3404693603516	590.6326904296875	366.61328125	-169.6388244628906	837.588134765625	348.8895263671875	-415.0575561523438	495.4621887207031	195.4098205566406	-205.9496307373047	581.8068237304688	46.6815071105957	-249.3324127197266	436.6789855957031	230.7674713134766	-264.8932495117188	427.5999145507812	200.9308624267578	-296.6911315917969	411.93505859375	209.5608673095703	-244.0145111083984	761.921875	356.6076965332031	-383.0056457519531
